<svg xmlns="http://www.w3.org/2000/svg" viewBox="0 0 800 600" fill="none">
  <defs>
    <linearGradient id="bg2" x1="0" y1="0" x2="800" y2="600">
      <stop offset="0%" stop-color="#1f1528"/>
      <stop offset="100%" stop-color="#12121f"/>
    </linearGradient>
    <radialGradient id="aiGlow" cx="50%" cy="50%" r="50%">
      <stop offset="0%" stop-color="#5ec4b6" stop-opacity="0.4"/>
      <stop offset="100%" stop-color="#5ec4b6" stop-opacity="0"/>
    </radialGradient>
  </defs>
  <rect width="800" height="600" fill="url(#bg2)"/>
  <circle cx="520" cy="280" r="140" fill="url(#aiGlow)"/>

  <!-- Person sitting -->
  <g transform="translate(180, 220)">
    <ellipse cx="70" cy="200" rx="55" ry="12" fill="#000" opacity="0.25"/>
    <rect x="90" y="130" width="80" height="12" rx="4" fill="#3d4458"/>
    <rect x="30" y="140" width="50" height="60" rx="10" fill="#4a5568"/>
    <circle cx="55" cy="110" r="30" fill="#c9a87c" opacity="0.85"/>
    <rect x="20" y="155" width="22" height="50" rx="6" fill="#4a5568"/>
    <rect x="68" y="155" width="22" height="50" rx="6" fill="#4a5568"/>
    <rect x="35" y="200" width="18" height="35" rx="5" fill="#2d3344"/>
    <rect x="57" y="200" width="18" height="35" rx="5" fill="#2d3344"/>
  </g>

  <!-- AI system interface -->
  <g transform="translate(420, 150)">
    <rect x="0" y="0" width="280" height="300" rx="20" fill="#1a1f2e" stroke="#5ec4b6" stroke-width="2"/>
    <rect x="20" y="20" width="240" height="50" rx="10" fill="#252a38"/>
    <circle cx="45" cy="45" r="12" fill="#5ec4b6" opacity="0.8"/>
    <rect x="65" y="38" width="120" height="8" rx="4" fill="#5ec4b6" opacity="0.5"/>
    <rect x="65" y="52" width="80" height="6" rx="3" fill="#c9a87c" opacity="0.4"/>
    <rect x="20" y="90" width="180" height="40" rx="12" fill="#252a38" stroke="#4a5568"/>
    <rect x="30" y="102" width="140" height="6" rx="3" fill="#a8a4b8" opacity="0.5"/>
    <rect x="30" y="114" width="100" height="6" rx="3" fill="#a8a4b8" opacity="0.3"/>
    <rect x="80" y="145" width="180" height="50" rx="12" fill="#1f3d38" stroke="#5ec4b6" stroke-width="1.5"/>
    <rect x="95" y="158" width="130" height="6" rx="3" fill="#5ec4b6" opacity="0.7"/>
    <rect x="95" y="172" width="90" height="6" rx="3" fill="#5ec4b6" opacity="0.4"/>
    <rect x="20" y="210" width="160" height="35" rx="10" fill="#252a38"/>
    <rect x="30" y="222" width="120" height="5" rx="2.5" fill="#a8a4b8" opacity="0.4"/>
    <rect x="20" y="255" width="240" height="30" rx="8" fill="#c9a87c" opacity="0.15" stroke="#c9a87c" stroke-width="1"/>
    <rect x="35" y="267" width="100" height="6" rx="3" fill="#c9a87c" opacity="0.6"/>
  </g>

  <!-- Connection line -->
  <path d="M310 300 Q380 280 420 300" stroke="#5ec4b6" stroke-width="2" stroke-dasharray="6 4" opacity="0.5"/>
  <circle cx="310" cy="300" r="5" fill="#5ec4b6" opacity="0.6"/>
  <circle cx="420" cy="300" r="5" fill="#5ec4b6" opacity="0.6"/>
</svg>
